<?xml version="1.0" standalone="no"?>
<!DOCTYPE svg PUBLIC "-//W3C//DTD SVG 20010904//EN"
 "http://www.w3.org/TR/2001/REC-SVG-20010904/DTD/svg10.dtd">
<svg version="1.0" xmlns="http://www.w3.org/2000/svg"
 width="2000.000000pt" height="2000.000000pt" viewBox="0 0 2000.000000 2000.000000"
 preserveAspectRatio="xMidYMid meet">

<g transform="translate(0.000000,2000.000000) scale(0.100000,-0.100000)"
fill="#000000" stroke="none">
<path d="M8437 15285 c-1313 -221 -2389 -404 -2391 -406 -3 -2 173 -215 390
-474 216 -258 393 -474 393 -480 0 -5 -34 -39 -75 -75 -42 -36 -142 -133 -223
-216 -390 -400 -688 -821 -931 -1319 -837 -1714 -650 -3755 484 -5280 64 -85
244 -309 296 -369 6 -6 1805 1488 1882 1563 15 15 9 25 -83 136 -344 414 -531
831 -611 1360 -8 59 -13 183 -13 360 1 233 4 288 23 400 98 570 356 1070 752
1460 89 88 91 90 108 70 448 -536 726 -865 728 -862 2 2 383 1015 848 2253
464 1237 847 2257 851 2267 6 13 2 17 -16 16 -13 0 -1098 -182 -2412 -404z"/>
<path d="M12754 12228 c-501 -420 -925 -775 -943 -791 l-33 -27 74 -88 c173
-206 281 -366 379 -562 180 -360 264 -698 276 -1115 19 -687 -220 -1327 -689
-1846 -125 -138 -178 -184 -194 -167 -6 7 -172 206 -370 442 -295 353 -359
425 -366 410 -54 -127 -1693 -4520 -1687 -4522 10 -4 4778 796 4801 806 15 6
-2 31 -100 147 -64 77 -244 291 -399 476 l-281 336 126 118 c646 603 1104
1319 1376 2150 174 532 250 1017 250 1590 -1 456 -42 796 -150 1235 -159 647
-455 1269 -864 1815 -98 130 -276 348 -289 353 -4 1 -417 -341 -917 -760z"/>
</g>
</svg>
